<svg xmlns="http://www.w3.org/2000/svg" viewBox="0 0 31 31"><path d="M1 1h7v7h-7zM11 1h2v2h1v-1h2v1h-1v1h-3v1h-1v-1h-1v1h-1v-3h2zM16 1h2v1h1v1h-2v-1h-1zM19 1h1v1h-1zM23 1h7v7h-7zM2 2v5h5v-5zM24 2v5h5v-5zM3 3h3v3h-3zM16 3h1v1h-1zM19 3h3v2h-1v1h-2v-1h1v-1h-1zM25 3h3v3h-3zM17 4h2v1h-1v1h-1v1h-1v-2h1zM10 5h1v1h-1zM11 6h1v2h1v1h1v1h-1v1h-1v-1h-1zM21 6h1v3h-1zM9 7h1v3h-1zM13 7h1v1h-1zM15 7h1v1h1v-1h1v2h-3zM19 7h1v1h-1zM1 9h1v1h2v1h-2v3h1v1h-1v1h2v1h-2v2h1v1h-1v2h-1zM7 9h1v1h-1zM18 9h1v1h-1zM22 9h2v1h-2zM26 9h3v2h-2v-1h-1zM8 10h1v1h-1zM10 10h1v1h-1zM14 10h1v1h2v-1h1v4h-1v-1h-1v-1h-1v2h-1zM20 10h1v1h-1zM24 10h2v1h-1v1h-1zM4 11h4v1h-1v1h1v1h-2v-1h-2zM9 11h1v1h1v-1h1v2h1v1h-1v1h-1v2h-1v1h-1v-1h-1v-1h1v-1h1v-1h1v-1h-3v-1h1zM22 11h1v2h-1v2h1v-2h2v1h1v1h-2v1h-2v1h-1v-2h-3v-1h2v-1h1v-1h1zM19 12h1v1h-1zM26 12h1v1h-1zM29 13h1v2h-2v-1h1zM8 14h1v1h-1zM16 14h1v2h-1zM4 15h1v1h-1zM6 15h2v1h-1v1h1v1h-4v-1h2zM12 15h2v2h-1v-1h-1zM26 15h2v3h2v2h-1v-1h-2v-1h-1v-1h1v-1h-1zM17 16h1v1h1v1h3v1h-1v1h1v1h1v-1h1v1h1v-2h-2v-1h3v1h1v1h-1v2h1v1h1v1h-2v1h1v1h1v1h1v1h-1v2h-3v-2h-1v1h-1v-1h-1v-1h-1v-1h-1v-1h-1v-1h1v-1h-1v-1h2v-1h-1v-1h-4v-1h-2v-1h2v-1h1zM19 16h1v1h-1zM24 16h1v1h-1zM29 16h1v1h-1zM8 18h1v2h-2v-1h1zM11 18h2v3h-1v-1h-1zM4 19h2v2h-1v1h-2v-1h1zM9 20h2v1h-1v1h3v-1h1v2h-5zM14 20h1v1h-1zM6 21h2v1h-2zM15 21h4v1h-2v1h2v1h-3v-1h-1zM27 21h3v1h-3zM22 22v3h3v-3zM1 23h7v7h-7zM23 23h1v1h-1zM2 24v5h5v-5zM11 24h1v1h-1zM13 24h1v1h1v-1h1v1h2v1h1v1h-2v2h-2v-1h-2v-2h-1v-1h1zM29 24h1v3h-1v-1h-1v-1h1zM3 25h3v3h-3zM10 25h1v1h-1zM11 26h1v2h-1zM14 26v1h1v-1zM23 26v1h3v-1zM19 27h1v1h-1zM10 28h1v1h-1zM20 28h1v2h-3v-1h2zM29 28h1v1h-1zM9 29h1v1h-1zM11 29h1v1h-1z"/></svg>